<svg width="93" height="88" viewBox="0 0 93 88" fill="none" xmlns="http://www.w3.org/2000/svg">
<path d="M79.92 87.688C76.848 87.688 74.0747 87.3467 71.6 86.664C69.2107 86.0667 67.0347 85.128 65.072 83.848C63.1947 82.568 61.488 80.9893 59.952 79.112C57.9893 76.552 56.0693 74.0773 54.192 71.688C52.4 69.2987 50.5227 66.6107 48.56 63.624C46.5973 60.552 44.2933 56.84 41.648 52.488C40.5387 50.3547 38.96 48.776 36.912 47.752C35.4613 46.984 33.968 46.472 32.432 46.216C30.9813 45.8747 29.7867 45.6613 28.848 45.576C28.2507 45.576 27.7813 45.832 27.44 46.344C27.184 46.7707 27.056 47.368 27.056 48.136V71.304C27.056 74.0347 27.7387 76.296 29.104 78.088C30.4693 79.7947 32.816 80.9467 36.144 81.544C37.3387 81.8 38.2347 82.0987 38.832 82.44C39.5147 82.7813 39.856 83.2933 39.856 83.976C39.856 84.488 39.5573 84.872 38.96 85.128C38.3627 85.384 37.552 85.512 36.528 85.512C34.3947 85.512 32.4747 85.4267 30.768 85.256C29.1467 85.1707 27.568 85.0853 26.032 85C24.5813 84.8293 23.0453 84.744 21.424 84.744C19.376 84.744 17.4133 84.8293 15.536 85C13.744 85.0853 11.9093 85.1707 10.032 85.256C8.24 85.4267 6.23467 85.512 4.016 85.512C3.07733 85.512 2.26667 85.384 1.584 85.128C0.986667 84.9573 0.688 84.5733 0.688 83.976C0.688 82.8667 1.92533 82.056 4.4 81.544C7.64267 80.9467 9.94667 80.008 11.312 78.728C12.7627 77.448 13.488 75.3147 13.488 72.328V16.776C13.488 13.8747 13.3173 11.6987 12.976 10.248C12.6347 8.71199 11.9093 7.64533 10.8 7.048C9.776 6.36533 8.112 5.85333 5.808 5.51199C4.44267 5.34133 3.46133 5.04266 2.864 4.616C2.26667 4.104 1.968 3.54933 1.968 2.952C1.968 2.44 2.26667 2.056 2.864 1.8C3.54667 1.45866 4.35733 1.28799 5.296 1.28799C7.77067 1.28799 9.69067 1.33066 11.056 1.41599C12.4213 1.50133 13.7013 1.58666 14.896 1.672C16.176 1.672 17.7547 1.672 19.632 1.672C21.3387 1.672 22.8747 1.62933 24.24 1.544C25.6053 1.37333 27.1413 1.24533 28.848 1.16C30.5547 0.989332 32.7307 0.903999 35.376 0.903999C44.9333 0.903999 52.2293 2.65333 57.264 6.15199C62.384 9.56533 64.944 14.7707 64.944 21.768C64.944 25.608 64.1333 28.8933 62.512 31.624C60.976 34.3547 59.0133 36.616 56.624 38.408C54.2347 40.2 51.8453 41.608 49.456 42.632C49.1147 42.7173 48.944 42.9307 48.944 43.272C49.0293 43.528 49.1573 43.8693 49.328 44.296C51.9733 48.2213 54.4907 51.976 56.88 55.56C59.3547 59.0587 61.9573 62.472 64.688 65.8C67.504 69.0427 70.704 72.328 74.288 75.656C76.6773 77.8747 79.152 79.1973 81.712 79.624C84.3573 80.0507 87.1733 80.264 90.16 80.264C91.44 80.264 92.08 80.8613 92.08 82.056C92.08 83.5067 91.3973 84.616 90.032 85.384C88.752 86.2373 87.1733 86.8347 85.296 87.176C83.4187 87.5173 81.6267 87.688 79.92 87.688ZM33.2 42.248C36.8693 42.248 39.984 41.4373 42.544 39.816C45.1893 38.1093 47.1947 35.8907 48.56 33.16C50.0107 30.344 50.736 27.3147 50.736 24.072C50.736 20.4027 50.2667 17.16 49.328 14.344C48.3893 11.528 46.6827 9.35199 44.208 7.81599C41.7333 6.19466 38.192 5.384 33.584 5.384C31.1947 5.384 29.5733 6.23733 28.72 7.94399C27.8667 9.56533 27.3973 12.68 27.312 17.288C27.2267 19.336 27.1413 22.0667 27.056 25.48C27.056 28.8933 27.056 32.9467 27.056 37.64C27.056 39.688 27.6107 40.968 28.72 41.48C29.8293 41.992 31.3227 42.248 33.2 42.248Z" fill="#D5AC42"/>
</svg>
