<svg width="25" height="25" fill="none" xmlns="http://www.w3.org/2000/svg"><path fill-rule="evenodd" clip-rule="evenodd" d="M12.5 25C19.404 25 25 19.404 25 12.5S19.404 0 12.5 0 0 5.596 0 12.5 5.596 25 12.5 25Zm6.324-16.026a1 1 0 1 0-1.537-1.28l-5.542 6.65c-.347.416-.542.646-.697.788l-.006.005-.007-.005c-.168-.126-.383-.338-.765-.721L7.65 11.793a1 1 0 0 0-1.414 1.414l2.618 2.618.041.041c.327.327.64.64.933.862.327.247.756.48 1.305.455.55-.025.956-.295 1.26-.572.27-.246.555-.587.85-.942l.037-.045 5.543-6.65Z" fill="#66EFC2"/></svg>