<svg width="26" height="26" fill="none" xmlns="http://www.w3.org/2000/svg"><path d="M7.823.321c-1.33.063-2.238.275-3.032.587-.822.32-1.518.75-2.211 1.446a6.123 6.123 0 0 0-1.438 2.215C.834 5.365.626 6.274.567 7.605.508 8.935.495 9.363.502 12.758c.006 3.394.021 3.82.086 5.153.063 1.33.275 2.238.587 3.032.32.822.75 1.518 1.445 2.212a6.116 6.116 0 0 0 2.218 1.437c.795.307 1.704.517 3.034.575 1.33.058 1.76.072 5.153.065 3.393-.006 3.82-.021 5.154-.084 1.333-.064 2.236-.277 3.03-.587a6.127 6.127 0 0 0 2.212-1.446 6.127 6.127 0 0 0 1.437-2.217c.308-.795.517-1.704.575-3.034.058-1.334.072-1.76.066-5.154-.007-3.394-.022-3.82-.085-5.153-.064-1.333-.276-2.238-.587-3.033a6.136 6.136 0 0 0-1.446-2.21A6.1 6.1 0 0 0 21.165.875C20.369.568 19.46.36 18.13.301 16.8.244 16.37.23 12.976.235c-3.395.007-3.82.021-5.153.086Zm.146 22.597c-1.219-.053-1.88-.255-2.321-.425-.584-.225-1-.497-1.44-.932a3.85 3.85 0 0 1-.937-1.435c-.172-.441-.378-1.102-.435-2.321-.062-1.317-.075-1.713-.082-5.05-.007-3.337.005-3.732.063-5.05.052-1.218.256-1.88.425-2.321.225-.585.496-1 .932-1.44.437-.439.853-.71 1.436-.937.44-.172 1.102-.377 2.32-.435 1.318-.062 1.713-.075 5.05-.082 3.337-.007 3.733.005 5.052.063 1.217.053 1.88.255 2.32.425.584.225 1 .496 1.44.933.439.437.71.851.938 1.436.172.44.376 1.1.434 2.319.063 1.318.077 1.713.083 5.05.006 3.336-.006 3.733-.064 5.05-.053 1.219-.255 1.88-.425 2.322-.225.584-.496 1-.932 1.44-.437.438-.853.709-1.436.937-.44.171-1.102.376-2.32.434-1.318.062-1.713.075-5.05.083-3.339.007-3.732-.007-5.05-.064M18.16 6.053a1.499 1.499 0 1 0 2.997-.004 1.499 1.499 0 0 0-2.997.004ZM6.582 12.746a6.42 6.42 0 1 0 12.836-.027 6.42 6.42 0 0 0-12.836.027Zm2.251-.004a4.167 4.167 0 1 1 8.334-.017 4.167 4.167 0 0 1-8.334.017Z" fill="#fff"/></svg>