<svg width="389" height="217" fill="none" xmlns="http://www.w3.org/2000/svg"><path d="M81.92 111.688c-3.072 0-5.845-.341-8.32-1.024-2.39-.597-4.565-1.536-6.528-2.816-1.877-1.28-3.584-2.859-5.12-4.736a791.727 791.727 0 0 0-5.76-7.424c-1.792-2.39-3.67-5.077-5.632-8.064a598.263 598.263 0 0 1-6.912-11.136c-1.11-2.133-2.688-3.712-4.736-4.736a14.696 14.696 0 0 0-4.48-1.536c-1.45-.341-2.645-.555-3.584-.64-.597 0-1.067.256-1.408.768-.256.427-.384 1.024-.384 1.792v23.168c0 2.73.683 4.992 2.048 6.784 1.365 1.707 3.712 2.859 7.04 3.456 1.195.256 2.09.555 2.688.896.683.341 1.024.853 1.024 1.536 0 .512-.299.896-.896 1.152-.597.256-1.408.384-2.432.384-2.133 0-4.053-.085-5.76-.256-1.621-.085-3.2-.171-4.736-.256a39.406 39.406 0 0 0-4.608-.256c-2.048 0-4.01.085-5.888.256-1.792.085-3.627.171-5.504.256-1.792.171-3.797.256-6.016.256-.939 0-1.75-.128-2.432-.384-.597-.171-.896-.555-.896-1.152 0-1.109 1.237-1.92 3.712-2.432 3.243-.597 5.547-1.536 6.912-2.816 1.45-1.28 2.176-3.413 2.176-6.4V40.776c0-2.901-.17-5.077-.512-6.528-.341-1.536-1.067-2.603-2.176-3.2-1.024-.683-2.688-1.195-4.992-1.536-1.365-.17-2.347-.47-2.944-.896-.597-.512-.896-1.067-.896-1.664 0-.512.299-.896.896-1.152.683-.341 1.493-.512 2.432-.512 2.475 0 4.395.043 5.76.128 1.365.085 2.645.17 3.84.256h4.736c1.707 0 3.243-.043 4.608-.128a62.655 62.655 0 0 1 4.608-.384c1.707-.17 3.883-.256 6.528-.256 9.557 0 16.853 1.75 21.888 5.248 5.12 3.413 7.68 8.619 7.68 15.616 0 3.84-.81 7.125-2.432 9.856-1.536 2.73-3.499 4.992-5.888 6.784-2.39 1.792-4.779 3.2-7.168 4.224-.341.085-.512.299-.512.64.085.256.213.597.384 1.024 2.645 3.925 5.163 7.68 7.552 11.264a180.06 180.06 0 0 0 7.808 10.24c2.816 3.243 6.016 6.528 9.6 9.856 2.39 2.219 4.864 3.541 7.424 3.968 2.645.427 5.461.64 8.448.64 1.28 0 1.92.597 1.92 1.792 0 1.451-.683 2.56-2.048 3.328-1.28.853-2.859 1.451-4.736 1.792-1.877.341-3.67.512-5.376.512ZM35.2 66.248c3.67 0 6.784-.81 9.344-2.432 2.645-1.707 4.65-3.925 6.016-6.656 1.45-2.816 2.176-5.845 2.176-9.088 0-3.67-.47-6.912-1.408-9.728-.939-2.816-2.645-4.992-5.12-6.528-2.475-1.621-6.016-2.432-10.624-2.432-2.39 0-4.01.853-4.864 2.56-.853 1.621-1.323 4.736-1.408 9.344a516.89 516.89 0 0 0-.256 8.192v12.16c0 2.048.555 3.328 1.664 3.84 1.11.512 2.603.768 4.48.768Zm85.436 44.672c-4.608 0-8.704-1.152-12.288-3.456-3.499-2.389-6.272-5.675-8.32-9.856-2.048-4.267-3.072-9.173-3.072-14.72 0-5.035 1.152-9.643 3.456-13.824 2.389-4.181 5.547-7.51 9.472-9.984 3.925-2.56 8.235-3.84 12.928-3.84 3.499 0 6.613.725 9.344 2.176 2.816 1.365 4.992 3.328 6.528 5.888 1.621 2.475 2.432 5.333 2.432 8.576 0 2.816-1.323 4.224-3.968 4.224h-26.496c-1.195 0-2.048.341-2.56 1.024s-.768 1.92-.768 3.712c0 3.755.853 7.21 2.56 10.368 1.707 3.072 3.968 5.547 6.784 7.424 2.816 1.877 5.931 2.816 9.344 2.816 2.56 0 4.864-.469 6.912-1.408 2.133-1.024 4.096-2.432 5.888-4.224.256-.341.469-.597.64-.768.256-.17.512-.256.768-.256.768 0 1.152.47 1.152 1.408 0 1.365-.597 2.987-1.792 4.864-1.195 1.792-2.731 3.456-4.608 4.992-1.792 1.451-3.925 2.603-6.4 3.456-2.389.939-5.035 1.408-7.936 1.408Zm-9.856-39.168h10.24c2.219 0 3.968-.043 5.248-.128a22.634 22.634 0 0 0 3.584-.512c.427-.17.725-.512.896-1.024.171-.597.256-1.323.256-2.176 0-2.39-.981-4.395-2.944-6.016-1.963-1.707-4.309-2.56-7.04-2.56-1.877 0-3.755.555-5.632 1.664a15.128 15.128 0 0 0-4.48 4.224c-1.195 1.621-1.749 3.285-1.664 4.992 0 1.024.512 1.536 1.536 1.536Zm59.826 74.368c-7.595 0-13.611-1.365-18.048-4.096-4.352-2.731-6.528-6.4-6.528-11.008 0-2.389.341-4.352 1.024-5.888.683-1.536 1.835-2.944 3.456-4.224a165.186 165.186 0 0 0 4.736-3.712 973.763 973.763 0 0 1 5.504-4.224l5.76.896c-3.669 2.219-6.272 4.395-7.808 6.528-1.536 2.219-2.304 4.864-2.304 7.936 0 3.499 1.493 6.4 4.48 8.704 2.987 2.304 6.699 3.456 11.136 3.456 5.376 0 9.472-1.152 12.288-3.456 1.963-1.536 3.456-3.499 4.48-5.888 1.109-2.389 1.664-4.864 1.664-7.424 0-1.707-.597-3.115-1.792-4.224s-3.115-2.005-5.76-2.688c-2.645-.683-6.229-1.195-10.752-1.536-8.277-.683-14.08-1.963-17.408-3.84-3.328-1.877-4.992-4.565-4.992-8.064 0-.853.213-1.664.64-2.432.512-.768 1.323-1.579 2.432-2.432a176.334 176.334 0 0 1 4.096-3.2c1.024-.768 1.792-1.408 2.304-1.92a9.206 9.206 0 0 0 1.536-2.048l4.992 2.176c-1.792.683-3.285 1.579-4.48 2.688-1.195 1.11-1.792 2.09-1.792 2.944 0 1.109.597 2.091 1.792 2.944 1.195.768 3.072 1.365 5.632 1.792 2.56.427 5.803.811 9.728 1.152 8.363.512 14.507 1.835 18.432 3.968 3.925 2.133 5.888 5.163 5.888 9.088 0 3.413-.896 6.741-2.688 9.984-1.707 3.328-4.011 6.357-6.912 9.088a35.374 35.374 0 0 1-9.728 6.528c-3.584 1.621-7.253 2.432-11.008 2.432Zm1.664-55.168c3.072 0 5.547-1.579 7.424-4.736 1.963-3.157 2.944-7.21 2.944-12.16 0-2.73-.512-5.205-1.536-7.424-1.024-2.219-2.389-3.968-4.096-5.248-1.621-1.365-3.456-2.048-5.504-2.048-1.877 0-3.627.683-5.248 2.048-1.621 1.365-2.901 3.2-3.84 5.504-.939 2.219-1.408 4.693-1.408 7.424 0 3.072.469 5.888 1.408 8.448 1.024 2.475 2.389 4.48 4.096 6.016 1.792 1.45 3.712 2.176 5.76 2.176Zm-1.024 4.864c-3.584 0-7.04-.896-10.368-2.688-3.328-1.792-6.059-4.181-8.192-7.168-2.133-3.072-3.2-6.443-3.2-10.112 0-4.181 1.109-7.808 3.328-10.88 2.219-3.157 5.12-5.59 8.704-7.296 3.669-1.792 7.509-2.688 11.52-2.688 2.56 0 4.821.341 6.784 1.024a74.79 74.79 0 0 0 6.272 1.536c1.963.512 3.584.853 4.864 1.024a69.94 69.94 0 0 0 4.352.128c1.109 0 2.389-.043 3.84-.128 1.451-.17 2.517-.256 3.2-.256 1.195 0 1.792.768 1.792 2.304 0 1.11-.469 2.176-1.408 3.2-.512.512-.939.768-1.28.768h-3.456c-2.219 0-3.541.341-3.968 1.024-.171.256-.341.64-.512 1.152a22.196 22.196 0 0 0-.256 1.792v2.944c0 4.437-1.024 8.49-3.072 12.16s-4.736 6.613-8.064 8.832c-3.243 2.219-6.869 3.328-10.88 3.328Zm36.993 13.568a6.483 6.483 0 0 1-1.792-.256c-.512-.171-.768-.555-.768-1.152 0-.683.299-1.152.896-1.408a22.81 22.81 0 0 1 2.048-1.024 34.9 34.9 0 0 0 3.584-1.408c1.109-.512 1.664-1.664 1.664-3.456V37.32c0-2.475-.427-4.523-1.28-6.144-.768-1.707-2.219-2.773-4.352-3.2-.683-.17-1.024-.768-1.024-1.792 0-.939.299-1.493.896-1.664a44.869 44.869 0 0 0 6.272-1.664 128.667 128.667 0 0 0 5.504-2.048c1.707-.683 3.243-1.28 4.608-1.792.512-.17.896-.256 1.152-.256.256 0 .427.128.512.384.171.256.256.512.256.768 0 .683-.128 2.133-.384 4.352-.256 2.219-.384 5.547-.384 9.984v66.432c0 1.707.555 2.859 1.664 3.456a34.9 34.9 0 0 0 3.584 1.408c.768.256 1.451.555 2.048.896.597.341.896.853.896 1.536 0 .512-.299.853-.896 1.024a5.224 5.224 0 0 1-1.664.256c-1.621 0-3.029-.043-4.224-.128a629.908 629.908 0 0 1-3.456-.256 52.895 52.895 0 0 0-3.968-.128c-1.451 0-2.731.043-3.84.128l-3.328.256c-1.109.171-2.517.256-4.224.256Zm57.216 1.408c-4.864 0-9.301-1.109-13.312-3.328-3.925-2.304-7.04-5.419-9.344-9.344-2.304-3.925-3.456-8.405-3.456-13.44 0-3.755.725-7.381 2.176-10.88 1.451-3.499 3.499-6.656 6.144-9.472a29.61 29.61 0 0 1 9.216-6.656c3.499-1.707 7.253-2.56 11.264-2.56 5.035 0 9.6 1.237 13.696 3.712 4.096 2.39 7.339 5.547 9.728 9.472 2.389 3.925 3.584 8.235 3.584 12.928 0 5.12-1.109 9.941-3.328 14.464s-5.547 8.192-9.984 11.008c-4.352 2.731-9.813 4.096-16.384 4.096Zm2.688-4.48c2.475 0 4.693-.469 6.656-1.408 1.963-1.024 3.499-2.56 4.608-4.608 1.024-1.963 1.707-4.352 2.048-7.168.427-2.901.64-5.845.64-8.832 0-4.267-.683-8.277-2.048-12.032-1.365-3.755-3.243-6.784-5.632-9.088-2.389-2.304-5.205-3.456-8.448-3.456-1.963 0-3.755.341-5.376 1.024-1.536.597-2.944 1.664-4.224 3.2-1.621 1.963-2.688 4.523-3.2 7.68-.512 3.072-.768 6.443-.768 10.112 0 4.096.683 8.021 2.048 11.776 1.365 3.755 3.2 6.827 5.504 9.216 2.389 2.389 5.12 3.584 8.192 3.584Zm58.419 6.016c-.171 0-.384-.128-.64-.384-.256-.171-.469-.427-.64-.768L307.234 66.76c-.597-1.792-1.493-3.243-2.688-4.352-1.195-1.195-2.475-2.005-3.84-2.432a11.364 11.364 0 0 1-2.048-.896c-.512-.427-.768-.939-.768-1.536 0-.597.341-.939 1.024-1.024.683-.17 1.237-.256 1.664-.256 1.451 0 2.688.043 3.712.128 1.109.085 2.176.213 3.2.384a46.89 46.89 0 0 0 3.584.128c1.365 0 2.645-.043 3.84-.128 1.28-.17 2.517-.299 3.712-.384a56.074 56.074 0 0 1 3.968-.128c.427 0 .981.085 1.664.256.683.17 1.024.512 1.024 1.024 0 .683-.341 1.195-1.024 1.536-.597.256-1.237.555-1.92.896-.853.256-1.536.853-2.048 1.792-.427.853-.64 1.92-.64 3.2 0 1.28.256 2.56.768 3.84l9.088 23.68c.085.256.256.384.512.384s.427-.128.512-.384l8.704-20.48c.341-.939.555-1.835.64-2.688.171-.939.256-1.835.256-2.688 0-1.536-.64-2.859-1.92-3.968-1.28-1.195-2.645-2.09-4.096-2.688a11.364 11.364 0 0 1-2.048-.896c-.512-.341-.768-.853-.768-1.536 0-.512.341-.853 1.024-1.024a7.94 7.94 0 0 1 1.92-.256c1.536 0 3.115.128 4.736.384a51.62 51.62 0 0 0 5.376.256c2.389 0 4.48-.085 6.272-.256a37.089 37.089 0 0 1 5.248-.384 6.08 6.08 0 0 1 1.664.256c.683.17 1.024.555 1.024 1.152 0 .597-.341 1.067-1.024 1.408-.597.341-1.237.64-1.92.896-.939.341-1.835.81-2.688 1.408-.768.597-1.152 1.621-1.152 3.072 0 .683.043 1.408.128 2.176.171.683.427 1.408.768 2.176l8.96 23.04c.256.683.512 1.024.768 1.024s.512-.299.768-.896l8.832-21.12a8.058 8.058 0 0 0 .64-2.56c.171-1.024.256-1.877.256-2.56 0-1.45-.469-2.645-1.408-3.584-.853-1.024-1.792-1.707-2.816-2.048a21.327 21.327 0 0 1-2.048-.896c-.597-.341-.896-.853-.896-1.536 0-.512.341-.853 1.024-1.024.683-.17 1.237-.256 1.664-.256 2.133 0 3.712.085 4.736.256 1.109.17 2.645.256 4.608.256 1.365 0 2.389-.043 3.072-.128.683-.085 1.323-.17 1.92-.256.683-.085 1.621-.128 2.816-.128a6.08 6.08 0 0 1 1.664.256c.683.085 1.024.427 1.024 1.024s-.299 1.11-.896 1.536a8.771 8.771 0 0 1-1.792.896c-1.451.427-2.773 1.408-3.968 2.944-1.195 1.536-2.219 3.285-3.072 5.248l-17.664 42.88c-.341.683-.853 1.024-1.536 1.024-.512 0-.981-.341-1.408-1.024l-14.208-34.304c-.171-.512-.384-.768-.64-.768s-.469.299-.64.896l-14.336 34.176c-.341.768-.853 1.152-1.536 1.152ZM27.584 204.536c-2.688 0-5.184-.416-7.488-1.248a19.311 19.311 0 0 1-6.048-3.36 10.474 10.474 0 0 1-.768-.864 5.306 5.306 0 0 1-.48-1.056c-.32-1.28-.544-2.944-.672-4.992-.064-2.048-.16-3.744-.288-5.088 0-.448.192-.768.576-.96.384-.256.832-.384 1.344-.384.32 0 .64.096.96.288.32.128.512.384.576.768 1.28 4.928 3.168 8.448 5.664 10.56 2.56 2.112 5.216 3.168 7.968 3.168 2.24 0 4.224-.48 5.952-1.44a10.182 10.182 0 0 0 4.032-4.032c1.024-1.792 1.536-3.872 1.536-6.24 0-2.624-.448-4.736-1.344-6.336-.832-1.664-2.048-3.104-3.648-4.32-1.6-1.216-3.552-2.528-5.856-3.936a742.9 742.9 0 0 1-7.392-4.8c-2.432-1.664-4.448-3.552-6.048-5.664-1.6-2.176-2.4-4.8-2.4-7.872 0-3.264.736-6.208 2.208-8.832 1.472-2.624 3.68-4.704 6.624-6.24 3.008-1.6 6.752-2.4 11.232-2.4 2.304 0 4.288.256 5.952.768 1.728.448 3.104.896 4.128 1.344.512.192.928.512 1.248.96.384.448.64.928.768 1.44.384 1.344.8 2.88 1.248 4.608.448 1.728.672 3.36.672 4.896 0 .704-.48 1.056-1.44 1.056a4.224 4.224 0 0 1-1.728-.384c-.512-.256-.832-.576-.96-.96-1.344-3.392-2.912-5.984-4.704-7.776-1.792-1.792-4.064-2.688-6.816-2.688-1.92 0-3.712.352-5.376 1.056-1.664.704-3.04 1.856-4.128 3.456-1.024 1.6-1.536 3.744-1.536 6.432 0 1.92.608 3.68 1.824 5.28 1.28 1.536 2.944 3.008 4.992 4.416a171.884 171.884 0 0 0 6.624 4.32 73.02 73.02 0 0 1 6.528 4.416c2.176 1.6 3.936 3.52 5.28 5.76 1.408 2.176 2.112 4.864 2.112 8.064 0 3.776-.864 7.104-2.592 9.984-1.728 2.816-4.16 4.992-7.296 6.528-3.136 1.536-6.816 2.304-11.04 2.304Zm46.065-.192c-3.136 0-5.6-.96-7.392-2.88-1.728-1.92-2.592-4.768-2.592-8.544v-22.272c0-.512-.192-.864-.576-1.056-.384-.256-1.216-.384-2.496-.384h-.576c-.32 0-.608-.192-.864-.576a3.388 3.388 0 0 1-.288-1.344c0-.128.096-.32.288-.576a5.81 5.81 0 0 1 .384-.48 40.636 40.636 0 0 0 3.456-2.688 40.401 40.401 0 0 0 2.88-2.592c.896-.896 1.632-1.696 2.208-2.4l.768-.768c.256-.256.544-.384.864-.384.32 0 .608.064.864.192.32.128.448.416.384.864l-.48 4.32c-.064.704.096 1.184.48 1.44s.992.384 1.824.384h10.944c.256 0 .48.224.672.672.192.384.288.864.288 1.44s-.096 1.152-.288 1.728c-.192.512-.416.768-.672.768h-9.504c-1.6 0-2.656.128-3.168.384-.448.256-.672 1.024-.672 2.304v18.912c0 2.56.544 4.576 1.632 6.048 1.088 1.472 2.656 2.208 4.704 2.208 1.856 0 3.296-.128 4.32-.384a10.202 10.202 0 0 0 2.784-1.344c.128-.128.256-.192.384-.192.256 0 .416.16.48.48.128.256.192.544.192.864 0 .32-.544.96-1.632 1.92-1.024.96-2.4 1.856-4.128 2.688-1.664.832-3.488 1.248-5.472 1.248Zm37.388 0c-3.584 0-6.816-.832-9.696-2.496-2.88-1.664-5.184-3.936-6.912-6.816-1.665-2.944-2.496-6.272-2.496-9.984 0-2.688.511-5.312 1.535-7.872a24.756 24.756 0 0 1 4.513-7.008 21.427 21.427 0 0 1 6.72-4.992c2.56-1.28 5.312-1.92 8.256-1.92 3.712 0 7.04.896 9.984 2.688 3.008 1.792 5.376 4.16 7.104 7.104 1.792 2.88 2.688 6.048 2.688 9.504 0 3.712-.832 7.232-2.496 10.56-1.6 3.328-4 6.048-7.2 8.16-3.2 2.048-7.2 3.072-12 3.072Zm2.016-2.88c2.176 0 4.128-.416 5.856-1.248 1.728-.832 3.072-2.176 4.032-4.032.768-1.472 1.28-3.264 1.536-5.376.256-2.112.384-4.096.384-5.952 0-3.072-.576-6.016-1.728-8.832-1.088-2.88-2.656-5.216-4.704-7.008-1.984-1.856-4.352-2.784-7.104-2.784-1.728 0-3.296.288-4.704.864-1.344.512-2.592 1.504-3.744 2.976-1.28 1.6-2.112 3.552-2.496 5.856a41.922 41.922 0 0 0-.576 6.912c0 3.136.576 6.144 1.728 9.024 1.152 2.816 2.72 5.12 4.704 6.912 1.984 1.792 4.256 2.688 6.816 2.688Zm30.635 1.824c-.64 0-1.12-.096-1.44-.288-.32-.128-.48-.384-.48-.768 0-.512.192-.832.576-.96.384-.192.928-.384 1.632-.576 1.216-.32 2.112-.768 2.688-1.344.64-.64.96-1.408.96-2.304v-20.64c0-1.728-.256-3.232-.768-4.512-.512-1.28-1.568-2.08-3.168-2.4-.256-.064-.48-.224-.672-.48-.192-.256-.288-.512-.288-.768 0-.64.288-1.024.864-1.152 1.664-.512 3.392-1.248 5.184-2.208 1.856-1.024 3.296-1.856 4.32-2.496.384-.256.672-.416.864-.48.256-.128.448-.192.576-.192.32 0 .48.224.48.672 0 .192-.032.672-.096 1.44 0 .768-.032 1.664-.096 2.688 0 1.024-.032 2.048-.096 3.072 0 .128.064.192.192.192a20.853 20.853 0 0 1 3.36-3.36c1.28-.96 2.56-1.728 3.84-2.304 1.344-.576 2.624-.864 3.84-.864 1.344 0 2.432.288 3.264.864.896.576 1.344 1.312 1.344 2.208 0 .64-.192 1.344-.576 2.112a6.184 6.184 0 0 1-1.344 2.016c-.576.576-1.184.864-1.824.864-.384 0-.8-.064-1.248-.192a27.175 27.175 0 0 1-1.44-.672l-1.536-.576a4.348 4.348 0 0 0-1.536-.288c-1.536 0-3.04.544-4.512 1.632-1.408 1.088-2.112 3.232-2.112 6.432v19.392c0 .832.448 1.536 1.344 2.112.896.512 2.144 1.024 3.744 1.536.704.192 1.248.384 1.632.576.384.192.576.512.576.96 0 .704-.64 1.056-1.92 1.056-1.92 0-3.392-.096-4.416-.288-.96-.128-2.272-.192-3.936-.192-1.088 0-1.984.032-2.688.096-.64.064-1.344.128-2.112.192-.704.128-1.696.192-2.976.192Zm50.686 1.152c-3.52 0-6.592-.864-9.216-2.592-2.624-1.728-4.672-4.16-6.144-7.296-1.472-3.2-2.208-6.88-2.208-11.04 0-3.712.832-7.072 2.496-10.08 1.728-3.072 4-5.536 6.816-7.392 2.816-1.856 5.888-2.784 9.216-2.784 2.56 0 4.832.512 6.816 1.536s3.52 2.464 4.608 4.32c1.152 1.792 1.728 3.872 1.728 6.24 0 1.984-.96 2.976-2.88 2.976H185.35c-.896 0-1.536.256-1.92.768-.32.448-.48 1.376-.48 2.784 0 3.072.672 5.888 2.016 8.448 1.344 2.496 3.136 4.512 5.376 6.048 2.24 1.472 4.704 2.208 7.392 2.208 1.92 0 3.648-.352 5.184-1.056 1.6-.768 3.008-1.856 4.224-3.264.256-.32.448-.512.576-.576a.651.651 0 0 1 .48-.192c.512 0 .768.32.768.96 0 1.216-.576 2.56-1.728 4.032a14.882 14.882 0 0 1-3.456 3.168 15.382 15.382 0 0 1-4.416 2.016c-1.6.512-3.264.768-4.992.768Zm-8.832-29.088h8.736c1.536 0 2.848-.032 3.936-.096a25.21 25.21 0 0 0 3.168-.384c.32-.064.512-.256.576-.576.128-.384.192-.896.192-1.536 0-1.856-.832-3.424-2.496-4.704-1.6-1.344-3.52-2.016-5.76-2.016-1.472 0-2.944.448-4.416 1.344-1.472.832-2.688 1.888-3.648 3.168-.96 1.28-1.44 2.56-1.44 3.84 0 .64.384.96 1.152.96Zm55.377 28.128c-.832 0-1.504-.096-2.016-.288-.512-.128-.768-.384-.768-.768 0-.768 1.056-1.344 3.168-1.728 2.432-.448 4.288-1.184 5.568-2.208 1.28-1.024 1.92-2.688 1.92-4.992v-43.2c0-2.304-.48-4-1.44-5.088s-2.624-1.728-4.992-1.92c-1.088-.128-1.888-.352-2.4-.672-.512-.384-.768-.8-.768-1.248 0-.384.256-.64.768-.768.512-.192 1.184-.288 2.016-.288h4.032c.96 0 1.856.032 2.688.096h3.264c1.216 0 2.272-.032 3.168-.096a36.19 36.19 0 0 1 2.976-.288c1.152-.064 2.656-.096 4.512-.096 7.488 0 13.056 1.088 16.704 3.264 3.712 2.112 5.568 5.792 5.568 11.04 0 2.176-.384 4.096-1.152 5.76-.704 1.6-1.408 2.752-2.112 3.456-1.024 1.024-1.952 1.824-2.784 2.4-.832.512-2.048 1.088-3.648 1.728-.256.064-.384.224-.384.48 0 .192.128.352.384.48a36.016 36.016 0 0 1 4.512 1.728c1.6.704 3.072 1.632 4.416 2.784 1.408 1.088 2.528 2.56 3.36 4.416.896 1.792 1.344 4.096 1.344 6.912 0 3.52-.576 6.304-1.728 8.352-1.088 2.048-2.4 3.616-3.936 4.704-1.536 1.088-2.976 1.984-4.32 2.688-1.984 1.024-4.288 1.824-6.912 2.4-2.624.576-5.76.864-9.408.864-.832 0-2.08-.064-3.744-.192a70.32 70.32 0 0 0-5.376-.192 78.06 78.06 0 0 0-4.224.096c-1.152.064-2.368.128-3.648.192-1.216.128-2.752.192-4.608.192Zm22.944-4.032c2.816 0 5.44-.64 7.872-1.92 2.432-1.28 4.384-3.008 5.856-5.184 1.472-2.24 2.208-4.736 2.208-7.488 0-2.496-.416-4.544-1.248-6.144-.832-1.664-1.792-3.008-2.88-4.032-1.088-1.024-2.08-1.76-2.976-2.208-.832-.512-2.144-1.024-3.936-1.536-1.792-.576-4.128-.864-7.008-.864-2.048 0-3.488.416-4.32 1.248-.768.832-1.152 1.568-1.152 2.208v19.104c0 2.688.64 4.512 1.92 5.472 1.344.896 3.232 1.344 5.664 1.344Zm-3.168-32.064c1.728 0 3.584-.192 5.568-.576 2.048-.384 4.064-1.12 6.048-2.208.704-.384 1.6-1.312 2.688-2.784 1.088-1.472 1.632-3.584 1.632-6.336 0-1.856-.352-3.744-1.056-5.664-.704-1.984-2.048-3.648-4.032-4.992-1.984-1.344-4.96-2.016-8.928-2.016-2.624 0-4.352.352-5.184 1.056-.768.704-1.152 1.792-1.152 3.264v16.704c0 1.664.544 2.688 1.632 3.072 1.088.32 2.016.48 2.784.48Zm46.072 36.96c-1.152 0-2.336-.448-3.552-1.344a13.224 13.224 0 0 1-2.976-3.264c-.768-1.28-1.152-2.496-1.152-3.648 0-2.048.544-3.648 1.632-4.8 1.088-1.152 2.816-2.208 5.184-3.168l9.792-4.032c1.28-.512 2.016-.96 2.208-1.344.256-.384.416-1.216.48-2.496l.192-6.144c.064-1.664-.416-3.104-1.44-4.32-.96-1.216-2.368-1.824-4.224-1.824-.96 0-1.92.16-2.88.48-.96.32-1.76.736-2.4 1.248-.384.256-.64.64-.768 1.152a6.71 6.71 0 0 0-.192 1.632v.864c.064.32.096.608.096.864 0 .32-.416.768-1.248 1.344-.768.512-1.664.992-2.688 1.44-.96.384-1.76.576-2.4.576-.32 0-.576-.064-.768-.192a.921.921 0 0 1-.288-.672c0-1.024.32-2.112.96-3.264.704-1.216 1.664-2.336 2.88-3.36a29.1 29.1 0 0 1 4.8-3.552c1.728-1.024 3.424-1.824 5.088-2.4 1.664-.576 3.136-.864 4.416-.864 2.304 0 4.192.832 5.664 2.496 1.536 1.6 2.272 3.616 2.208 6.048l-.48 23.04c-.064 1.344.224 2.432.864 3.264.704.832 1.568 1.248 2.592 1.248 1.6 0 2.784-.352 3.552-1.056.32-.32.576-.48.768-.48.32 0 .576.096.768.288.192.192.288.448.288.768 0 .704-.352 1.408-1.056 2.112-1.024 1.024-2.144 1.824-3.36 2.4-1.152.64-2.24.96-3.264.96-2.944 0-5.28-1.664-7.008-4.992h-.288c-2.112 1.728-4.128 2.976-6.048 3.744a14.823 14.823 0 0 1-5.952 1.248Zm4.512-4.608c1.28 0 2.368-.192 3.264-.576a9.172 9.172 0 0 0 2.4-1.728c.32-.32.576-.736.768-1.248.256-.576.416-1.472.48-2.688l.192-4.704c.064-.704.032-1.216-.096-1.536-.128-.32-.384-.48-.768-.48-.128 0-.352.032-.672.096a8.5 8.5 0 0 0-1.248.384c-3.392 1.216-5.76 2.496-7.104 3.84-1.28 1.28-1.92 2.464-1.92 3.552 0 1.664.48 2.944 1.44 3.84 1.024.832 2.112 1.248 3.264 1.248Zm29.224 3.552c-.32 0-.736-.064-1.248-.192-.448-.064-.672-.288-.672-.672 0-.512.224-.864.672-1.056.512-.256 1.024-.48 1.536-.672.96-.32 1.888-.672 2.784-1.056.896-.448 1.344-1.312 1.344-2.592v-48.384c0-1.856-.352-3.392-1.056-4.608-.64-1.28-1.76-2.08-3.36-2.4-.512-.128-.768-.544-.768-1.248 0-.64.224-1.024.672-1.152a57.44 57.44 0 0 0 4.32-1.152 61.148 61.148 0 0 0 3.36-1.344c1.088-.448 2.144-.864 3.168-1.248.256-.128.448-.192.576-.192.128 0 .224.096.288.288.128.128.192.256.192.384 0 .576-.128 1.824-.384 3.744-.192 1.856-.288 4.96-.288 9.312v48c0 1.28.448 2.144 1.344 2.592.896.384 1.824.736 2.784 1.056a9.91 9.91 0 0 1 1.44.672c.512.192.768.544.768 1.056 0 .384-.256.608-.768.672-.448.128-.832.192-1.152.192-1.216 0-2.208-.064-2.976-.192l-2.112-.192c-.64-.064-1.536-.096-2.688-.096-1.088 0-1.984.032-2.688.096l-2.112.192c-.704.128-1.696.192-2.976.192Zm26.422 0c-.576 0-1.056-.096-1.44-.288-.32-.128-.48-.384-.48-.768 0-.512.224-.864.672-1.056a14.142 14.142 0 0 1 1.536-.48c1.344-.32 2.368-.704 3.072-1.152.704-.512 1.056-1.344 1.056-2.496v-20.832c0-1.728-.32-3.264-.96-4.608-.576-1.344-1.696-2.144-3.36-2.4-.32-.064-.576-.192-.768-.384-.128-.192-.192-.48-.192-.864 0-.704.288-1.088.864-1.152 2.56-.576 4.672-1.344 6.336-2.304 1.664-1.024 2.912-1.856 3.744-2.496.576-.448 1.024-.672 1.344-.672.384 0 .576.16.576.48 0 .512-.096 1.536-.288 3.072a282.788 282.788 0 0 0-.384 4.992 69.22 69.22 0 0 0-.192 4.896v22.272c0 1.088.352 1.888 1.056 2.4.768.512 1.792.928 3.072 1.248.512.128.992.288 1.44.48.512.192.768.544.768 1.056 0 .704-.64 1.056-1.92 1.056-1.216 0-2.208-.064-2.976-.192l-2.112-.192c-.64-.064-1.536-.096-2.688-.096-1.088 0-1.984.032-2.688.096l-2.112.192c-.704.128-1.696.192-2.976.192Zm7.68-49.824c-1.344 0-2.496-.448-3.456-1.344-.896-.96-1.344-2.112-1.344-3.456 0-1.408.448-2.56 1.344-3.456.96-.96 2.112-1.44 3.456-1.44 1.408 0 2.56.48 3.456 1.44.96.896 1.44 2.048 1.44 3.456 0 1.344-.48 2.496-1.44 3.456-.896.896-2.048 1.344-3.456 1.344Z" fill="#0A0A0A"/></svg>