<svg width="389" height="217" viewBox="0 0 389 217" fill="none" xmlns="http://www.w3.org/2000/svg">
<path d="M81.92 111.688C78.848 111.688 76.0747 111.347 73.6 110.664C71.2107 110.067 69.0347 109.128 67.072 107.848C65.1947 106.568 63.488 104.989 61.952 103.112C59.9893 100.552 58.0693 98.0773 56.192 95.688C54.4 93.2987 52.5227 90.6107 50.56 87.624C48.5973 84.552 46.2933 80.84 43.648 76.488C42.5387 74.3547 40.96 72.776 38.912 71.752C37.4613 70.984 35.968 70.472 34.432 70.216C32.9813 69.8747 31.7867 69.6613 30.848 69.576C30.2507 69.576 29.7813 69.832 29.44 70.344C29.184 70.7707 29.056 71.368 29.056 72.136V95.304C29.056 98.0347 29.7387 100.296 31.104 102.088C32.4693 103.795 34.816 104.947 38.144 105.544C39.3387 105.8 40.2347 106.099 40.832 106.44C41.5147 106.781 41.856 107.293 41.856 107.976C41.856 108.488 41.5573 108.872 40.96 109.128C40.3627 109.384 39.552 109.512 38.528 109.512C36.3947 109.512 34.4747 109.427 32.768 109.256C31.1467 109.171 29.568 109.085 28.032 109C26.5813 108.829 25.0453 108.744 23.424 108.744C21.376 108.744 19.4133 108.829 17.536 109C15.744 109.085 13.9093 109.171 12.032 109.256C10.24 109.427 8.23467 109.512 6.016 109.512C5.07733 109.512 4.26667 109.384 3.584 109.128C2.98667 108.957 2.688 108.573 2.688 107.976C2.688 106.867 3.92533 106.056 6.4 105.544C9.64267 104.947 11.9467 104.008 13.312 102.728C14.7627 101.448 15.488 99.3147 15.488 96.328V40.776C15.488 37.8747 15.3173 35.6987 14.976 34.248C14.6347 32.712 13.9093 31.6453 12.8 31.048C11.776 30.3653 10.112 29.8533 7.808 29.512C6.44267 29.3413 5.46133 29.0427 4.864 28.616C4.26667 28.104 3.968 27.5493 3.968 26.952C3.968 26.44 4.26667 26.056 4.864 25.8C5.54667 25.4587 6.35733 25.288 7.296 25.288C9.77067 25.288 11.6907 25.3307 13.056 25.416C14.4213 25.5013 15.7013 25.5867 16.896 25.672C18.176 25.672 19.7547 25.672 21.632 25.672C23.3387 25.672 24.8747 25.6293 26.24 25.544C27.6053 25.3733 29.1413 25.2453 30.848 25.16C32.5547 24.9893 34.7307 24.904 37.376 24.904C46.9333 24.904 54.2293 26.6533 59.264 30.152C64.384 33.5653 66.944 38.7707 66.944 45.768C66.944 49.608 66.1333 52.8933 64.512 55.624C62.976 58.3547 61.0133 60.616 58.624 62.408C56.2347 64.2 53.8453 65.608 51.456 66.632C51.1147 66.7173 50.944 66.9307 50.944 67.272C51.0293 67.528 51.1573 67.8693 51.328 68.296C53.9733 72.2213 56.4907 75.976 58.88 79.56C61.3547 83.0587 63.9573 86.472 66.688 89.8C69.504 93.0427 72.704 96.328 76.288 99.656C78.6773 101.875 81.152 103.197 83.712 103.624C86.3573 104.051 89.1733 104.264 92.16 104.264C93.44 104.264 94.08 104.861 94.08 106.056C94.08 107.507 93.3973 108.616 92.032 109.384C90.752 110.237 89.1733 110.835 87.296 111.176C85.4187 111.517 83.6267 111.688 81.92 111.688ZM35.2 66.248C38.8693 66.248 41.984 65.4373 44.544 63.816C47.1893 62.1093 49.1947 59.8907 50.56 57.16C52.0107 54.344 52.736 51.3147 52.736 48.072C52.736 44.4027 52.2667 41.16 51.328 38.344C50.3893 35.528 48.6827 33.352 46.208 31.816C43.7333 30.1947 40.192 29.384 35.584 29.384C33.1947 29.384 31.5733 30.2373 30.72 31.944C29.8667 33.5653 29.3973 36.68 29.312 41.288C29.2267 43.336 29.1413 46.0667 29.056 49.48C29.056 52.8933 29.056 56.9467 29.056 61.64C29.056 63.688 29.6107 64.968 30.72 65.48C31.8293 65.992 33.3227 66.248 35.2 66.248ZM120.636 110.92C116.028 110.92 111.932 109.768 108.348 107.464C104.849 105.075 102.076 101.789 100.028 97.608C97.98 93.3413 96.956 88.4347 96.956 82.888C96.956 77.8533 98.108 73.2453 100.412 69.064C102.801 64.8827 105.959 61.5547 109.884 59.08C113.809 56.52 118.119 55.24 122.812 55.24C126.311 55.24 129.425 55.9653 132.156 57.416C134.972 58.7813 137.148 60.744 138.684 63.304C140.305 65.7787 141.116 68.6373 141.116 71.88C141.116 74.696 139.793 76.104 137.148 76.104H110.652C109.457 76.104 108.604 76.4453 108.092 77.128C107.58 77.8107 107.324 79.048 107.324 80.84C107.324 84.5947 108.177 88.0507 109.884 91.208C111.591 94.28 113.852 96.7547 116.668 98.632C119.484 100.509 122.599 101.448 126.012 101.448C128.572 101.448 130.876 100.979 132.924 100.04C135.057 99.016 137.02 97.608 138.812 95.816C139.068 95.4747 139.281 95.2187 139.452 95.048C139.708 94.8773 139.964 94.792 140.22 94.792C140.988 94.792 141.372 95.2613 141.372 96.2C141.372 97.5653 140.775 99.1867 139.58 101.064C138.385 102.856 136.849 104.52 134.972 106.056C133.18 107.507 131.047 108.659 128.572 109.512C126.183 110.451 123.537 110.92 120.636 110.92ZM110.78 71.752H121.02C123.239 71.752 124.988 71.7093 126.268 71.624C127.548 71.5387 128.743 71.368 129.852 71.112C130.279 70.9413 130.577 70.6 130.748 70.088C130.919 69.4907 131.004 68.7653 131.004 67.912C131.004 65.5227 130.023 63.5173 128.06 61.896C126.097 60.1893 123.751 59.336 121.02 59.336C119.143 59.336 117.265 59.8907 115.388 61C113.596 62.1093 112.103 63.5173 110.908 65.224C109.713 66.8453 109.159 68.5093 109.244 70.216C109.244 71.24 109.756 71.752 110.78 71.752ZM170.606 146.12C163.011 146.12 156.995 144.755 152.558 142.024C148.206 139.293 146.03 135.624 146.03 131.016C146.03 128.627 146.371 126.664 147.054 125.128C147.737 123.592 148.889 122.184 150.51 120.904C151.875 119.88 153.454 118.643 155.246 117.192C157.123 115.741 158.958 114.333 160.75 112.968L166.51 113.864C162.841 116.083 160.238 118.259 158.702 120.392C157.166 122.611 156.398 125.256 156.398 128.328C156.398 131.827 157.891 134.728 160.878 137.032C163.865 139.336 167.577 140.488 172.014 140.488C177.39 140.488 181.486 139.336 184.302 137.032C186.265 135.496 187.758 133.533 188.782 131.144C189.891 128.755 190.446 126.28 190.446 123.72C190.446 122.013 189.849 120.605 188.654 119.496C187.459 118.387 185.539 117.491 182.894 116.808C180.249 116.125 176.665 115.613 172.142 115.272C163.865 114.589 158.062 113.309 154.734 111.432C151.406 109.555 149.742 106.867 149.742 103.368C149.742 102.515 149.955 101.704 150.382 100.936C150.894 100.168 151.705 99.3573 152.814 98.504C154.521 97.1387 155.886 96.072 156.91 95.304C157.934 94.536 158.702 93.896 159.214 93.384C159.811 92.7867 160.323 92.104 160.75 91.336L165.742 93.512C163.95 94.1947 162.457 95.0907 161.262 96.2C160.067 97.3093 159.47 98.2907 159.47 99.144C159.47 100.253 160.067 101.235 161.262 102.088C162.457 102.856 164.334 103.453 166.894 103.88C169.454 104.307 172.697 104.691 176.622 105.032C184.985 105.544 191.129 106.867 195.054 109C198.979 111.133 200.942 114.163 200.942 118.088C200.942 121.501 200.046 124.829 198.254 128.072C196.547 131.4 194.243 134.429 191.342 137.16C188.441 139.891 185.198 142.067 181.614 143.688C178.03 145.309 174.361 146.12 170.606 146.12ZM172.27 90.952C175.342 90.952 177.817 89.3733 179.694 86.216C181.657 83.0587 182.638 79.0053 182.638 74.056C182.638 71.3253 182.126 68.8507 181.102 66.632C180.078 64.4133 178.713 62.664 177.006 61.384C175.385 60.0187 173.55 59.336 171.502 59.336C169.625 59.336 167.875 60.0187 166.254 61.384C164.633 62.7493 163.353 64.584 162.414 66.888C161.475 69.1067 161.006 71.5813 161.006 74.312C161.006 77.384 161.475 80.2 162.414 82.76C163.438 85.2347 164.803 87.24 166.51 88.776C168.302 90.2267 170.222 90.952 172.27 90.952ZM171.246 95.816C167.662 95.816 164.206 94.92 160.878 93.128C157.55 91.336 154.819 88.9467 152.686 85.96C150.553 82.888 149.486 79.5173 149.486 75.848C149.486 71.6667 150.595 68.04 152.814 64.968C155.033 61.8107 157.934 59.3787 161.518 57.672C165.187 55.88 169.027 54.984 173.038 54.984C175.598 54.984 177.859 55.3253 179.822 56.008C181.87 56.6053 183.961 57.1173 186.094 57.544C188.057 58.056 189.678 58.3973 190.958 58.568C192.323 58.6533 193.774 58.696 195.31 58.696C196.419 58.696 197.699 58.6533 199.15 58.568C200.601 58.3973 201.667 58.312 202.35 58.312C203.545 58.312 204.142 59.08 204.142 60.616C204.142 61.7253 203.673 62.792 202.734 63.816C202.222 64.328 201.795 64.584 201.454 64.584H197.998C195.779 64.584 194.457 64.9253 194.03 65.608C193.859 65.864 193.689 66.248 193.518 66.76C193.433 67.1867 193.347 67.784 193.262 68.552C193.262 69.32 193.262 70.3013 193.262 71.496C193.262 75.9333 192.238 79.9867 190.19 83.656C188.142 87.3253 185.454 90.2693 182.126 92.488C178.883 94.7067 175.257 95.816 171.246 95.816ZM208.239 109.384C207.642 109.384 207.044 109.299 206.447 109.128C205.935 108.957 205.679 108.573 205.679 107.976C205.679 107.293 205.978 106.824 206.575 106.568C207.172 106.227 207.855 105.885 208.623 105.544C209.903 105.117 211.098 104.648 212.207 104.136C213.316 103.624 213.871 102.472 213.871 100.68V37.32C213.871 34.8453 213.444 32.7973 212.591 31.176C211.823 29.4693 210.372 28.4027 208.239 27.976C207.556 27.8053 207.215 27.208 207.215 26.184C207.215 25.2453 207.514 24.6907 208.111 24.52C210.33 24.0933 212.42 23.5387 214.383 22.856C216.346 22.1733 218.18 21.4907 219.887 20.808C221.594 20.1253 223.13 19.528 224.495 19.016C225.007 18.8453 225.391 18.76 225.647 18.76C225.903 18.76 226.074 18.888 226.159 19.144C226.33 19.4 226.415 19.656 226.415 19.912C226.415 20.5947 226.287 22.0453 226.031 24.264C225.775 26.4827 225.647 29.8107 225.647 34.248V100.68C225.647 102.387 226.202 103.539 227.311 104.136C228.42 104.648 229.615 105.117 230.895 105.544C231.663 105.8 232.346 106.099 232.943 106.44C233.54 106.781 233.839 107.293 233.839 107.976C233.839 108.488 233.54 108.829 232.943 109C232.431 109.171 231.876 109.256 231.279 109.256C229.658 109.256 228.25 109.213 227.055 109.128C225.86 109.043 224.708 108.957 223.599 108.872C222.49 108.787 221.167 108.744 219.631 108.744C218.18 108.744 216.9 108.787 215.791 108.872C214.682 108.957 213.572 109.043 212.463 109.128C211.354 109.299 209.946 109.384 208.239 109.384ZM265.455 110.792C260.591 110.792 256.154 109.683 252.143 107.464C248.218 105.16 245.103 102.045 242.799 98.12C240.495 94.1947 239.343 89.7147 239.343 84.68C239.343 80.9253 240.068 77.2987 241.519 73.8C242.97 70.3013 245.018 67.144 247.663 64.328C250.308 61.512 253.38 59.2933 256.879 57.672C260.378 55.9653 264.132 55.112 268.143 55.112C273.178 55.112 277.743 56.3493 281.839 58.824C285.935 61.2133 289.178 64.3707 291.567 68.296C293.956 72.2213 295.151 76.5307 295.151 81.224C295.151 86.344 294.042 91.1653 291.823 95.688C289.604 100.211 286.276 103.88 281.839 106.696C277.487 109.427 272.026 110.792 265.455 110.792ZM268.143 106.312C270.618 106.312 272.836 105.843 274.799 104.904C276.762 103.88 278.298 102.344 279.407 100.296C280.431 98.3333 281.114 95.944 281.455 93.128C281.882 90.2267 282.095 87.2827 282.095 84.296C282.095 80.0293 281.412 76.0187 280.047 72.264C278.682 68.5093 276.804 65.48 274.415 63.176C272.026 60.872 269.21 59.72 265.967 59.72C264.004 59.72 262.212 60.0613 260.591 60.744C259.055 61.3413 257.647 62.408 256.367 63.944C254.746 65.9067 253.679 68.4667 253.167 71.624C252.655 74.696 252.399 78.0667 252.399 81.736C252.399 85.832 253.082 89.7573 254.447 93.512C255.812 97.2667 257.647 100.339 259.951 102.728C262.34 105.117 265.071 106.312 268.143 106.312ZM326.562 112.328C326.391 112.328 326.178 112.2 325.922 111.944C325.666 111.773 325.453 111.517 325.282 111.176L307.234 66.76C306.637 64.968 305.741 63.5173 304.546 62.408C303.351 61.2133 302.071 60.4027 300.706 59.976C299.938 59.72 299.255 59.4213 298.658 59.08C298.146 58.6533 297.89 58.1413 297.89 57.544C297.89 56.9467 298.231 56.6053 298.914 56.52C299.597 56.3493 300.151 56.264 300.578 56.264C302.029 56.264 303.266 56.3067 304.29 56.392C305.399 56.4773 306.466 56.6053 307.49 56.776C308.599 56.8613 309.794 56.904 311.074 56.904C312.439 56.904 313.719 56.8613 314.914 56.776C316.194 56.6053 317.431 56.4773 318.626 56.392C319.821 56.3067 321.143 56.264 322.594 56.264C323.021 56.264 323.575 56.3493 324.258 56.52C324.941 56.6907 325.282 57.032 325.282 57.544C325.282 58.2267 324.941 58.7387 324.258 59.08C323.661 59.336 323.021 59.6347 322.338 59.976C321.485 60.232 320.802 60.8293 320.29 61.768C319.863 62.6213 319.65 63.688 319.65 64.968C319.65 66.248 319.906 67.528 320.418 68.808L329.506 92.488C329.591 92.744 329.762 92.872 330.018 92.872C330.274 92.872 330.445 92.744 330.53 92.488L339.234 72.008C339.575 71.0693 339.789 70.1733 339.874 69.32C340.045 68.3813 340.13 67.4853 340.13 66.632C340.13 65.096 339.49 63.7733 338.21 62.664C336.93 61.4693 335.565 60.5733 334.114 59.976C333.346 59.72 332.663 59.4213 332.066 59.08C331.554 58.7387 331.298 58.2267 331.298 57.544C331.298 57.032 331.639 56.6907 332.322 56.52C333.005 56.3493 333.645 56.264 334.242 56.264C335.778 56.264 337.357 56.392 338.978 56.648C340.599 56.8187 342.391 56.904 344.354 56.904C346.743 56.904 348.834 56.8187 350.626 56.648C352.418 56.392 354.167 56.264 355.874 56.264C356.386 56.264 356.941 56.3493 357.538 56.52C358.221 56.6907 358.562 57.0747 358.562 57.672C358.562 58.2693 358.221 58.7387 357.538 59.08C356.941 59.4213 356.301 59.72 355.618 59.976C354.679 60.3173 353.783 60.7867 352.93 61.384C352.162 61.9813 351.778 63.0053 351.778 64.456C351.778 65.1387 351.821 65.864 351.906 66.632C352.077 67.3147 352.333 68.04 352.674 68.808L361.634 91.848C361.89 92.5307 362.146 92.872 362.402 92.872C362.658 92.872 362.914 92.5733 363.17 91.976L372.002 70.856C372.343 70.088 372.557 69.2347 372.642 68.296C372.813 67.272 372.898 66.4187 372.898 65.736C372.898 64.2853 372.429 63.0907 371.49 62.152C370.637 61.128 369.698 60.4453 368.674 60.104C367.991 59.848 367.309 59.5493 366.626 59.208C366.029 58.8667 365.73 58.3547 365.73 57.672C365.73 57.16 366.071 56.8187 366.754 56.648C367.437 56.4773 367.991 56.392 368.418 56.392C370.551 56.392 372.13 56.4773 373.154 56.648C374.263 56.8187 375.799 56.904 377.762 56.904C379.127 56.904 380.151 56.8613 380.834 56.776C381.517 56.6907 382.157 56.6053 382.754 56.52C383.437 56.4347 384.375 56.392 385.57 56.392C386.082 56.392 386.637 56.4773 387.234 56.648C387.917 56.7333 388.258 57.0747 388.258 57.672C388.258 58.2693 387.959 58.7813 387.362 59.208C386.85 59.5493 386.253 59.848 385.57 60.104C384.119 60.5307 382.797 61.512 381.602 63.048C380.407 64.584 379.383 66.3333 378.53 68.296L360.866 111.176C360.525 111.859 360.013 112.2 359.33 112.2C358.818 112.2 358.349 111.859 357.922 111.176L343.714 76.872C343.543 76.36 343.33 76.104 343.074 76.104C342.818 76.104 342.605 76.4027 342.434 77L328.098 111.176C327.757 111.944 327.245 112.328 326.562 112.328Z" fill="#0A0A0A"/>
<path d="M27.584 204.536C24.896 204.536 22.4 204.12 20.096 203.288C17.856 202.52 15.84 201.4 14.048 199.928C13.792 199.672 13.536 199.384 13.28 199.064C13.088 198.744 12.928 198.392 12.8 198.008C12.48 196.728 12.256 195.064 12.128 193.016C12.064 190.968 11.968 189.272 11.84 187.928C11.84 187.48 12.032 187.16 12.416 186.968C12.8 186.712 13.248 186.584 13.76 186.584C14.08 186.584 14.4 186.68 14.72 186.872C15.04 187 15.232 187.256 15.296 187.64C16.576 192.568 18.464 196.088 20.96 198.2C23.52 200.312 26.176 201.368 28.928 201.368C31.168 201.368 33.152 200.888 34.88 199.928C36.608 198.968 37.952 197.624 38.912 195.896C39.936 194.104 40.448 192.024 40.448 189.656C40.448 187.032 40 184.92 39.104 183.32C38.272 181.656 37.056 180.216 35.456 179C33.856 177.784 31.904 176.472 29.6 175.064C27.104 173.464 24.64 171.864 22.208 170.264C19.776 168.6 17.76 166.712 16.16 164.6C14.56 162.424 13.76 159.8 13.76 156.728C13.76 153.464 14.496 150.52 15.968 147.896C17.44 145.272 19.648 143.192 22.592 141.656C25.6 140.056 29.344 139.256 33.824 139.256C36.128 139.256 38.112 139.512 39.776 140.024C41.504 140.472 42.88 140.92 43.904 141.368C44.416 141.56 44.832 141.88 45.152 142.328C45.536 142.776 45.792 143.256 45.92 143.768C46.304 145.112 46.72 146.648 47.168 148.376C47.616 150.104 47.84 151.736 47.84 153.272C47.84 153.976 47.36 154.328 46.4 154.328C45.824 154.328 45.248 154.2 44.672 153.944C44.16 153.688 43.84 153.368 43.712 152.984C42.368 149.592 40.8 147 39.008 145.208C37.216 143.416 34.944 142.52 32.192 142.52C30.272 142.52 28.48 142.872 26.816 143.576C25.152 144.28 23.776 145.432 22.688 147.032C21.664 148.632 21.152 150.776 21.152 153.464C21.152 155.384 21.76 157.144 22.976 158.744C24.256 160.28 25.92 161.752 27.968 163.16C30.016 164.568 32.224 166.008 34.592 167.48C36.832 168.824 39.008 170.296 41.12 171.896C43.296 173.496 45.056 175.416 46.4 177.656C47.808 179.832 48.512 182.52 48.512 185.72C48.512 189.496 47.648 192.824 45.92 195.704C44.192 198.52 41.76 200.696 38.624 202.232C35.488 203.768 31.808 204.536 27.584 204.536ZM73.649 204.344C70.513 204.344 68.049 203.384 66.257 201.464C64.529 199.544 63.665 196.696 63.665 192.92V170.648C63.665 170.136 63.473 169.784 63.089 169.592C62.705 169.336 61.873 169.208 60.593 169.208H60.017C59.697 169.208 59.409 169.016 59.153 168.632C58.961 168.184 58.865 167.736 58.865 167.288C58.865 167.16 58.961 166.968 59.153 166.712C59.345 166.456 59.473 166.296 59.537 166.232C60.817 165.336 61.969 164.44 62.993 163.544C64.081 162.648 65.041 161.784 65.873 160.952C66.769 160.056 67.505 159.256 68.081 158.552C68.401 158.232 68.657 157.976 68.849 157.784C69.105 157.528 69.393 157.4 69.713 157.4C70.033 157.4 70.321 157.464 70.577 157.592C70.897 157.72 71.025 158.008 70.961 158.456L70.481 162.776C70.417 163.48 70.577 163.96 70.961 164.216C71.345 164.472 71.953 164.6 72.785 164.6H83.729C83.985 164.6 84.209 164.824 84.401 165.272C84.593 165.656 84.689 166.136 84.689 166.712C84.689 167.288 84.593 167.864 84.401 168.44C84.209 168.952 83.985 169.208 83.729 169.208H74.225C72.625 169.208 71.569 169.336 71.057 169.592C70.609 169.848 70.385 170.616 70.385 171.896V190.808C70.385 193.368 70.929 195.384 72.017 196.856C73.105 198.328 74.673 199.064 76.721 199.064C78.577 199.064 80.017 198.936 81.041 198.68C82.065 198.36 82.993 197.912 83.825 197.336C83.953 197.208 84.081 197.144 84.209 197.144C84.465 197.144 84.625 197.304 84.689 197.624C84.817 197.88 84.881 198.168 84.881 198.488C84.881 198.808 84.337 199.448 83.249 200.408C82.225 201.368 80.849 202.264 79.121 203.096C77.457 203.928 75.633 204.344 73.649 204.344ZM111.037 204.344C107.453 204.344 104.221 203.512 101.341 201.848C98.4605 200.184 96.1565 197.912 94.4285 195.032C92.7645 192.088 91.9325 188.76 91.9325 185.048C91.9325 182.36 92.4445 179.736 93.4685 177.176C94.5565 174.616 96.0605 172.28 97.9805 170.168C99.9005 168.056 102.141 166.392 104.701 165.176C107.261 163.896 110.013 163.256 112.957 163.256C116.669 163.256 119.997 164.152 122.941 165.944C125.949 167.736 128.317 170.104 130.045 173.048C131.837 175.928 132.733 179.096 132.733 182.552C132.733 186.264 131.901 189.784 130.237 193.112C128.637 196.44 126.237 199.16 123.037 201.272C119.837 203.32 115.837 204.344 111.037 204.344ZM113.053 201.464C115.229 201.464 117.181 201.048 118.909 200.216C120.637 199.384 121.981 198.04 122.941 196.184C123.709 194.712 124.221 192.92 124.477 190.808C124.733 188.696 124.861 186.712 124.861 184.856C124.861 181.784 124.285 178.84 123.133 176.024C122.045 173.144 120.477 170.808 118.429 169.016C116.445 167.16 114.077 166.232 111.325 166.232C109.597 166.232 108.029 166.52 106.621 167.096C105.277 167.608 104.029 168.6 102.877 170.072C101.597 171.672 100.765 173.624 100.381 175.928C99.9965 178.232 99.8045 180.536 99.8045 182.84C99.8045 185.976 100.381 188.984 101.533 191.864C102.685 194.68 104.253 196.984 106.237 198.776C108.221 200.568 110.493 201.464 113.053 201.464ZM143.688 203.288C143.048 203.288 142.568 203.192 142.248 203C141.928 202.872 141.768 202.616 141.768 202.232C141.768 201.72 141.96 201.4 142.344 201.272C142.728 201.08 143.272 200.888 143.976 200.696C145.192 200.376 146.088 199.928 146.664 199.352C147.304 198.712 147.624 197.944 147.624 197.048V176.408C147.624 174.68 147.368 173.176 146.856 171.896C146.344 170.616 145.288 169.816 143.688 169.496C143.432 169.432 143.208 169.272 143.016 169.016C142.824 168.76 142.728 168.504 142.728 168.248C142.728 167.608 143.016 167.224 143.592 167.096C145.256 166.584 146.984 165.848 148.776 164.888C150.632 163.864 152.072 163.032 153.096 162.392C153.48 162.136 153.768 161.976 153.96 161.912C154.216 161.784 154.408 161.72 154.536 161.72C154.856 161.72 155.016 161.944 155.016 162.392C155.016 162.584 154.984 163.064 154.92 163.832C154.92 164.6 154.888 165.496 154.824 166.52C154.824 167.544 154.792 168.568 154.728 169.592C154.728 169.72 154.792 169.784 154.92 169.784C155.944 168.504 157.064 167.384 158.28 166.424C159.56 165.464 160.84 164.696 162.12 164.12C163.464 163.544 164.744 163.256 165.96 163.256C167.304 163.256 168.392 163.544 169.224 164.12C170.12 164.696 170.568 165.432 170.568 166.328C170.568 166.968 170.376 167.672 169.992 168.44C169.672 169.208 169.224 169.88 168.648 170.456C168.072 171.032 167.464 171.32 166.824 171.32C166.44 171.32 166.024 171.256 165.576 171.128C165.128 170.936 164.648 170.712 164.136 170.456C163.624 170.264 163.112 170.072 162.6 169.88C162.088 169.688 161.576 169.592 161.064 169.592C159.528 169.592 158.024 170.136 156.552 171.224C155.144 172.312 154.44 174.456 154.44 177.656V197.048C154.44 197.88 154.888 198.584 155.784 199.16C156.68 199.672 157.928 200.184 159.528 200.696C160.232 200.888 160.776 201.08 161.16 201.272C161.544 201.464 161.736 201.784 161.736 202.232C161.736 202.936 161.096 203.288 159.816 203.288C157.896 203.288 156.424 203.192 155.4 203C154.44 202.872 153.128 202.808 151.464 202.808C150.376 202.808 149.48 202.84 148.776 202.904C148.136 202.968 147.432 203.032 146.664 203.096C145.96 203.224 144.968 203.288 143.688 203.288ZM194.374 204.44C190.854 204.44 187.782 203.576 185.158 201.848C182.534 200.12 180.486 197.688 179.014 194.552C177.542 191.352 176.806 187.672 176.806 183.512C176.806 179.8 177.638 176.44 179.302 173.432C181.03 170.36 183.302 167.896 186.118 166.04C188.934 164.184 192.006 163.256 195.334 163.256C197.894 163.256 200.166 163.768 202.15 164.792C204.134 165.816 205.67 167.256 206.758 169.112C207.91 170.904 208.486 172.984 208.486 175.352C208.486 177.336 207.526 178.328 205.606 178.328H185.35C184.454 178.328 183.814 178.584 183.43 179.096C183.11 179.544 182.95 180.472 182.95 181.88C182.95 184.952 183.622 187.768 184.966 190.328C186.31 192.824 188.102 194.84 190.342 196.376C192.582 197.848 195.046 198.584 197.734 198.584C199.654 198.584 201.382 198.232 202.918 197.528C204.518 196.76 205.926 195.672 207.142 194.264C207.398 193.944 207.59 193.752 207.718 193.688C207.846 193.56 208.006 193.496 208.198 193.496C208.71 193.496 208.966 193.816 208.966 194.456C208.966 195.672 208.39 197.016 207.238 198.488C206.278 199.704 205.126 200.76 203.782 201.656C202.438 202.552 200.966 203.224 199.366 203.672C197.766 204.184 196.102 204.44 194.374 204.44ZM185.542 175.352H194.278C195.814 175.352 197.126 175.32 198.214 175.256C199.302 175.192 200.358 175.064 201.382 174.872C201.702 174.808 201.894 174.616 201.958 174.296C202.086 173.912 202.15 173.4 202.15 172.76C202.15 170.904 201.318 169.336 199.654 168.056C198.054 166.712 196.134 166.04 193.894 166.04C192.422 166.04 190.95 166.488 189.478 167.384C188.006 168.216 186.79 169.272 185.83 170.552C184.87 171.832 184.39 173.112 184.39 174.392C184.39 175.032 184.774 175.352 185.542 175.352ZM240.919 203.48C240.087 203.48 239.415 203.384 238.903 203.192C238.391 203.064 238.135 202.808 238.135 202.424C238.135 201.656 239.191 201.08 241.303 200.696C243.735 200.248 245.591 199.512 246.871 198.488C248.151 197.464 248.791 195.8 248.791 193.496V150.296C248.791 147.992 248.311 146.296 247.351 145.208C246.391 144.12 244.727 143.48 242.359 143.288C241.271 143.16 240.471 142.936 239.959 142.616C239.447 142.232 239.191 141.816 239.191 141.368C239.191 140.984 239.447 140.728 239.959 140.6C240.471 140.408 241.143 140.312 241.975 140.312C243.703 140.312 245.047 140.312 246.007 140.312C246.967 140.312 247.863 140.344 248.695 140.408C249.591 140.408 250.679 140.408 251.959 140.408C253.175 140.408 254.231 140.376 255.127 140.312C256.023 140.184 257.015 140.088 258.103 140.024C259.255 139.96 260.759 139.928 262.615 139.928C270.103 139.928 275.671 141.016 279.319 143.192C283.031 145.304 284.887 148.984 284.887 154.232C284.887 156.408 284.503 158.328 283.735 159.992C283.031 161.592 282.327 162.744 281.623 163.448C280.599 164.472 279.671 165.272 278.839 165.848C278.007 166.36 276.791 166.936 275.191 167.576C274.935 167.64 274.807 167.8 274.807 168.056C274.807 168.248 274.935 168.408 275.191 168.536C276.663 168.984 278.167 169.56 279.703 170.264C281.303 170.968 282.775 171.896 284.119 173.048C285.527 174.136 286.647 175.608 287.479 177.464C288.375 179.256 288.823 181.56 288.823 184.376C288.823 187.896 288.247 190.68 287.095 192.728C286.007 194.776 284.695 196.344 283.159 197.432C281.623 198.52 280.183 199.416 278.839 200.12C276.855 201.144 274.551 201.944 271.927 202.52C269.303 203.096 266.167 203.384 262.519 203.384C261.687 203.384 260.439 203.32 258.775 203.192C257.111 203.064 255.319 203 253.399 203C251.735 203 250.327 203.032 249.175 203.096C248.023 203.16 246.807 203.224 245.527 203.288C244.311 203.416 242.775 203.48 240.919 203.48ZM263.863 199.448C266.679 199.448 269.303 198.808 271.735 197.528C274.167 196.248 276.119 194.52 277.591 192.344C279.063 190.104 279.799 187.608 279.799 184.856C279.799 182.36 279.383 180.312 278.551 178.712C277.719 177.048 276.759 175.704 275.671 174.68C274.583 173.656 273.591 172.92 272.695 172.472C271.863 171.96 270.551 171.448 268.759 170.936C266.967 170.36 264.631 170.072 261.751 170.072C259.703 170.072 258.263 170.488 257.431 171.32C256.663 172.152 256.279 172.888 256.279 173.528V192.632C256.279 195.32 256.919 197.144 258.199 198.104C259.543 199 261.431 199.448 263.863 199.448ZM260.695 167.384C262.423 167.384 264.279 167.192 266.263 166.808C268.311 166.424 270.327 165.688 272.311 164.6C273.015 164.216 273.911 163.288 274.999 161.816C276.087 160.344 276.631 158.232 276.631 155.48C276.631 153.624 276.279 151.736 275.575 149.816C274.871 147.832 273.527 146.168 271.543 144.824C269.559 143.48 266.583 142.808 262.615 142.808C259.991 142.808 258.263 143.16 257.431 143.864C256.663 144.568 256.279 145.656 256.279 147.128V163.832C256.279 165.496 256.823 166.52 257.911 166.904C258.999 167.224 259.927 167.384 260.695 167.384ZM306.767 204.344C305.615 204.344 304.431 203.896 303.215 203C302.063 202.104 301.071 201.016 300.239 199.736C299.471 198.456 299.087 197.24 299.087 196.088C299.087 194.04 299.631 192.44 300.719 191.288C301.807 190.136 303.535 189.08 305.903 188.12L315.695 184.088C316.975 183.576 317.711 183.128 317.903 182.744C318.159 182.36 318.319 181.528 318.383 180.248L318.575 174.104C318.639 172.44 318.159 171 317.135 169.784C316.175 168.568 314.767 167.96 312.911 167.96C311.951 167.96 310.991 168.12 310.031 168.44C309.071 168.76 308.271 169.176 307.631 169.688C307.247 169.944 306.991 170.328 306.863 170.84C306.735 171.352 306.671 171.896 306.671 172.472C306.671 172.728 306.671 173.016 306.671 173.336C306.735 173.656 306.767 173.944 306.767 174.2C306.767 174.52 306.351 174.968 305.519 175.544C304.751 176.056 303.855 176.536 302.831 176.984C301.871 177.368 301.071 177.56 300.431 177.56C300.111 177.56 299.855 177.496 299.663 177.368C299.471 177.176 299.375 176.952 299.375 176.696C299.375 175.672 299.695 174.584 300.335 173.432C301.039 172.216 301.999 171.096 303.215 170.072C304.687 168.728 306.287 167.544 308.015 166.52C309.743 165.496 311.439 164.696 313.103 164.12C314.767 163.544 316.239 163.256 317.519 163.256C319.823 163.256 321.711 164.088 323.183 165.752C324.719 167.352 325.455 169.368 325.391 171.8L324.911 194.84C324.847 196.184 325.135 197.272 325.775 198.104C326.479 198.936 327.343 199.352 328.367 199.352C329.967 199.352 331.151 199 331.919 198.296C332.239 197.976 332.495 197.816 332.687 197.816C333.007 197.816 333.263 197.912 333.455 198.104C333.647 198.296 333.743 198.552 333.743 198.872C333.743 199.576 333.391 200.28 332.687 200.984C331.663 202.008 330.543 202.808 329.327 203.384C328.175 204.024 327.087 204.344 326.063 204.344C323.119 204.344 320.783 202.68 319.055 199.352H318.767C316.655 201.08 314.639 202.328 312.719 203.096C310.799 203.928 308.815 204.344 306.767 204.344ZM311.279 199.736C312.559 199.736 313.647 199.544 314.543 199.16C315.439 198.712 316.239 198.136 316.943 197.432C317.263 197.112 317.519 196.696 317.711 196.184C317.967 195.608 318.127 194.712 318.191 193.496L318.383 188.792C318.447 188.088 318.415 187.576 318.287 187.256C318.159 186.936 317.903 186.776 317.519 186.776C317.391 186.776 317.167 186.808 316.847 186.872C316.527 186.936 316.111 187.064 315.599 187.256C312.207 188.472 309.839 189.752 308.495 191.096C307.215 192.376 306.575 193.56 306.575 194.648C306.575 196.312 307.055 197.592 308.015 198.488C309.039 199.32 310.127 199.736 311.279 199.736ZM340.503 203.288C340.183 203.288 339.767 203.224 339.255 203.096C338.807 203.032 338.583 202.808 338.583 202.424C338.583 201.912 338.807 201.56 339.255 201.368C339.767 201.112 340.279 200.888 340.791 200.696C341.751 200.376 342.679 200.024 343.575 199.64C344.471 199.192 344.919 198.328 344.919 197.048V148.664C344.919 146.808 344.567 145.272 343.863 144.056C343.223 142.776 342.103 141.976 340.503 141.656C339.991 141.528 339.735 141.112 339.735 140.408C339.735 139.768 339.959 139.384 340.407 139.256C342.071 138.872 343.511 138.488 344.727 138.104C345.943 137.656 347.063 137.208 348.087 136.76C349.175 136.312 350.231 135.896 351.255 135.512C351.511 135.384 351.703 135.32 351.831 135.32C351.959 135.32 352.055 135.416 352.119 135.608C352.247 135.736 352.311 135.864 352.311 135.992C352.311 136.568 352.183 137.816 351.927 139.736C351.735 141.592 351.639 144.696 351.639 149.048V197.048C351.639 198.328 352.087 199.192 352.983 199.64C353.879 200.024 354.807 200.376 355.767 200.696C356.279 200.888 356.759 201.112 357.207 201.368C357.719 201.56 357.975 201.912 357.975 202.424C357.975 202.808 357.719 203.032 357.207 203.096C356.759 203.224 356.375 203.288 356.055 203.288C354.839 203.288 353.847 203.224 353.079 203.096C352.375 203.032 351.671 202.968 350.967 202.904C350.327 202.84 349.431 202.808 348.279 202.808C347.191 202.808 346.295 202.84 345.591 202.904C344.887 202.968 344.183 203.032 343.479 203.096C342.775 203.224 341.783 203.288 340.503 203.288ZM366.925 203.288C366.349 203.288 365.869 203.192 365.485 203C365.165 202.872 365.005 202.616 365.005 202.232C365.005 201.72 365.229 201.368 365.677 201.176C366.189 200.984 366.701 200.824 367.213 200.696C368.557 200.376 369.581 199.992 370.285 199.544C370.989 199.032 371.341 198.2 371.341 197.048V176.216C371.341 174.488 371.021 172.952 370.381 171.608C369.805 170.264 368.685 169.464 367.021 169.208C366.701 169.144 366.445 169.016 366.253 168.824C366.125 168.632 366.061 168.344 366.061 167.96C366.061 167.256 366.349 166.872 366.925 166.808C369.485 166.232 371.597 165.464 373.261 164.504C374.925 163.48 376.173 162.648 377.005 162.008C377.581 161.56 378.029 161.336 378.349 161.336C378.733 161.336 378.925 161.496 378.925 161.816C378.925 162.328 378.829 163.352 378.637 164.888C378.509 166.36 378.381 168.024 378.253 169.88C378.125 171.672 378.061 173.304 378.061 174.776V197.048C378.061 198.136 378.413 198.936 379.117 199.448C379.885 199.96 380.909 200.376 382.189 200.696C382.701 200.824 383.181 200.984 383.629 201.176C384.141 201.368 384.397 201.72 384.397 202.232C384.397 202.936 383.757 203.288 382.477 203.288C381.261 203.288 380.269 203.224 379.501 203.096C378.797 203.032 378.093 202.968 377.389 202.904C376.749 202.84 375.853 202.808 374.701 202.808C373.613 202.808 372.717 202.84 372.013 202.904C371.309 202.968 370.605 203.032 369.901 203.096C369.197 203.224 368.205 203.288 366.925 203.288ZM374.605 153.464C373.261 153.464 372.109 153.016 371.149 152.12C370.253 151.16 369.805 150.008 369.805 148.664C369.805 147.256 370.253 146.104 371.149 145.208C372.109 144.248 373.261 143.768 374.605 143.768C376.013 143.768 377.165 144.248 378.061 145.208C379.021 146.104 379.501 147.256 379.501 148.664C379.501 150.008 379.021 151.16 378.061 152.12C377.165 153.016 376.013 153.464 374.605 153.464Z" fill="#0A0A0A"/>
</svg>
