<svg width="24" height="26" fill="none" xmlns="http://www.w3.org/2000/svg"><path fill-rule="evenodd" clip-rule="evenodd" d="M13.92 1.325h3.22a5.988 5.988 0 0 0 2.682 3.92l.001.002c.96.61 2.103.967 3.33.967v4.297c-2.28 0-4.393-.712-6.118-1.922v8.734c0 4.362-3.63 7.91-8.094 7.91A8.175 8.175 0 0 1 4.3 23.8l-.001-.002c-2.087-1.433-3.454-3.8-3.454-6.476 0-4.362 3.631-7.91 8.095-7.91.37 0 .733.029 1.09.076v4.389a3.72 3.72 0 0 0-1.09-.167c-2.039 0-3.697 1.62-3.697 3.613 0 1.387.805 2.593 1.982 3.198a3.739 3.739 0 0 0 1.714.415c1.992 0 3.616-1.548 3.69-3.477L12.637.234h4.398c0 .372.037.737.104 1.09h-3.22Z" fill="#fff"/></svg>