<svg width="25" height="27" viewBox="0 0 25 27" fill="none" xmlns="http://www.w3.org/2000/svg">
<g id="Digital_Glyph_Black 1" clip-path="url(#clip0_31_736)">
<path id="Vector" fill-rule="evenodd" clip-rule="evenodd" d="M21.3574 4.58092C19.0076 2.22811 15.8824 0.931736 12.5525 0.930542C5.69104 0.930542 0.106838 6.51415 0.10445 13.3774C0.103256 15.5714 0.676838 17.713 1.7661 19.6003L0 26.0511L6.59886 24.3202C8.41687 25.3122 10.4641 25.8344 12.5472 25.8351H12.5525C19.4128 25.8351 24.9976 20.2508 25 13.3876C25.0012 10.0613 23.7078 6.93434 21.3574 4.58152V4.58092ZM12.5525 23.7329H12.5483C10.6921 23.7323 8.87111 23.2333 7.28229 22.2909L6.90446 22.0665L2.98847 23.0937L4.03357 19.2755L3.78766 18.884C2.75211 17.2367 2.20479 15.3327 2.20599 13.378C2.20837 7.67385 6.84954 3.03267 12.5567 3.03267C15.3201 3.03387 17.9177 4.1112 19.8712 6.0671C21.8247 8.02242 22.8997 10.6223 22.8985 13.3864C22.896 19.0912 18.2549 23.7323 12.5525 23.7323V23.7329ZM18.2274 15.9845C17.9165 15.8287 16.3874 15.0767 16.102 14.9728C15.8167 14.8689 15.6097 14.8171 15.4025 15.1286C15.1954 15.4402 14.5992 16.1409 14.4177 16.348C14.2363 16.5557 14.0548 16.5814 13.7438 16.4255C13.4329 16.2698 12.4308 15.9415 11.2424 14.8821C10.3179 14.0572 9.69354 13.039 9.51215 12.7274C9.3307 12.4159 9.49306 12.2476 9.6482 12.093C9.78785 11.9533 9.95917 11.7295 10.1149 11.548C10.2708 11.3666 10.3221 11.2365 10.4259 11.0294C10.5298 10.8217 10.4778 10.6403 10.4003 10.4844C10.3226 10.3287 9.70076 8.79769 9.44111 8.17519C9.18861 7.5688 8.93201 7.65117 8.7416 7.64102C8.56014 7.63206 8.35306 7.63028 8.14535 7.63028C7.93764 7.63028 7.60097 7.70787 7.31569 8.01943C7.03042 8.33096 6.22702 9.0836 6.22702 10.6139C6.22702 12.1443 7.34139 13.6239 7.49715 13.8317C7.65292 14.0394 9.69056 17.1806 12.8103 18.5283C13.5523 18.8488 14.1318 19.0404 14.5836 19.1837C15.3285 19.4206 16.0065 19.3872 16.5425 19.3072C17.14 19.2177 18.3826 18.5546 18.6417 17.8282C18.9007 17.1018 18.9007 16.4787 18.8231 16.3492C18.7456 16.2196 18.5378 16.1414 18.2269 15.9857L18.2274 15.9845Z" fill="#0A0A0A"/>
</g>
<defs>
<clipPath id="clip0_31_736">
<rect width="25" height="25.1389" fill="white" transform="translate(0 0.930542)"/>
</clipPath>
</defs>
</svg>
